<!DOCTYPE svg PUBLIC "-//W3C//DTD SVG 1.1//EN" "http://www.w3.org/Graphics/SVG/1.1/DTD/svg11.dtd">
<!-- Uploaded to: SVG Repo, www.svgrepo.com, Transformed by: SVG Repo Mixer Tools -->
<svg height="100px" width="100px" version="1.1" id="Capa_1" xmlns="http://www.w3.org/2000/svg" xmlns:xlink="http://www.w3.org/1999/xlink" viewBox="0 0 15.314 15.314" xml:space="preserve" fill="#000000">
<g id="SVGRepo_bgCarrier" stroke-width="0"/>
<g id="SVGRepo_tracerCarrier" stroke-linecap="round" stroke-linejoin="round"/>
<g id="SVGRepo_iconCarrier"> <g> <g> <circle style="fill:#277EA4;" cx="11.71" cy="5.655" r="0.656"/> <path style="fill:#277EA4;" d="M14.109,2.793h0.084c0.219,0,0.397-0.179,0.397-0.398V1.326c0-0.221-0.179-0.398-0.397-0.398H1.12 c-0.22,0-0.398,0.178-0.398,0.398v1.071c0,0.219,0.178,0.397,0.398,0.397h0.084C0.413,4.023,0,5.433,0,6.916 c0,2.734,1.44,5.136,3.602,6.491v0.977l8.109,0.002v-0.979c2.161-1.354,3.603-3.757,3.603-6.491 C15.314,5.432,14.9,4.022,14.109,2.793z M1.267,4.427c0.248-0.634,0.587-1.233,1.024-1.783c0.096-0.12,0.115-0.283,0.048-0.421 c-0.067-0.138-0.206-0.226-0.36-0.226H1.518V1.723h12.277v0.275h-0.461c-0.154,0-0.294,0.088-0.357,0.226 c-0.068,0.138-0.049,0.301,0.045,0.42c0.26,0.325,0.481,0.669,0.673,1.026c-0.151-0.11-0.311-0.212-0.476-0.301 c-0.592-0.311-1.274-0.466-1.95-0.455C10.588,2.913,9.925,3.08,9.301,3.308C8.677,3.545,8.097,3.869,7.546,4.224 c-0.277,0.189-0.52,0.365-0.78,0.528c-0.26,0.166-0.527,0.317-0.796,0.46c-0.537,0.29-1.104,0.51-1.686,0.637 C3.703,5.967,3.096,5.973,2.53,5.777C2,5.602,1.512,5.257,1.14,4.793L1.267,4.427z M7.658,13.776 c-3.783,0-6.862-3.079-6.862-6.861c0-0.672,0.102-1.329,0.289-1.958l0.042-0.12C1.379,5.376,1.832,5.832,2.385,6.12 c0.607,0.31,1.32,0.396,1.992,0.314c1.354-0.161,2.552-0.86,3.589-1.58c0.51-0.346,1.046-0.646,1.604-0.883 c0.554-0.244,1.138-0.405,1.73-0.469c0.892-0.096,1.825,0.113,2.617,0.616c0.06,0.133,0.118,0.268,0.169,0.404l0.166,0.501 c0.174,0.609,0.268,1.242,0.268,1.891C14.518,10.699,11.442,13.776,7.658,13.776z"/> <path style="fill:#277EA4;" d="M7.787,8.836c-0.001,0.005-0.099-0.01-0.312-0.06C7.447,8.769,7.416,8.765,7.386,8.761 C6.923,8.308,6.004,8.077,6.268,8.505c0.059,0.097,0.125,0.219,0.191,0.35C6.274,8.9,6.146,8.942,6.146,8.942 C5.588,9.199,5.127,9.507,4.849,9.814L4.011,9.328v1.979l0.769-0.628c0.28,0.32,0.814,0.725,1.471,0.994 c-0.086,0.139-0.17,0.27-0.244,0.372c-0.311,0.419,0.708,0.239,1.19-0.209c0.241-0.02,0.685-0.179,0.683-0.183 c0.757-0.364,1.605-1.358,1.605-1.358s-0.03-0.077-0.024-0.084C9.46,10.211,8.966,9.252,7.787,8.836z M8.409,10.253 c-0.171,0-0.308-0.137-0.308-0.305c0-0.166,0.137-0.303,0.308-0.303s0.308,0.137,0.308,0.303 C8.717,10.116,8.578,10.253,8.409,10.253z"/> <circle style="fill:#277EA4;" cx="10.217" cy="8.278" r="0.837"/> </g> </g> </g>
</svg>